<svg xmlns="http://www.w3.org/2000/svg" width="177.77" height="32"><defs><style>.cls-1{fill:#f4511e}</style></defs><g id="logo-dx-orange" transform="translate(-375 -17)"><g id="Group_306" transform="translate(375 17)"><path id="Path_214" d="M22.47 10.8L10.15 4.02h12.32V0H0v13.97h4.05V5.44l15.27 8.53h3.15z" class="cls-1"/><path id="Path_215" d="M22.47 54.35H9.54l12.93-7.15v-2.8h-3.76L4.05 52.6v-8.2H0v13.97h22.47z" class="cls-1" transform="translate(0 -26.37)"/><path id="Path_216" d="M82.88 0H63.4v4.02h12.32L63.4 10.76v3.2h3.11L81.86 5.4v8.57h4.05V0z" class="cls-1" transform="translate(-37.45)"/><path id="Path_217" d="M81.86 44.4v8.2l-14.73-8.2H63.4v2.84l12.9 7.11H63.4v4.02h22.51V44.4z" class="cls-1" transform="translate(-37.45 -26.37)"/></g><g id="Group_307" transform="translate(437.05 25.32)"><path id="Path_218" d="M161.14 28.21c0-3.33-1.48-4.99-4.46-4.99h-1.76v10.11h1.43c3.15 0 4.79-1.7 4.79-5.11m3.44-.08a7.66 7.66 0 01-2.22 5.88 9.14 9.14 0 01-6.34 2.04h-4.42V20.5h4.91a8.25 8.25 0 015.94 1.99 7.6 7.6 0 012.13 5.64" class="cls-1" transform="translate(-151.6 -20.5)"/><path id="Path_219" d="M192.65 31.31a2.08 2.08 0 00-1.64.65 2.86 2.86 0 00-.66 1.87h4.59a2.84 2.84 0 00-.61-1.87 2.17 2.17 0 00-1.68-.65m.49 10a6.14 6.14 0 01-4.5-1.6 5.9 5.9 0 01-1.64-4.46 6.52 6.52 0 011.51-4.63 6.16 6.16 0 018.1-.2 5.45 5.45 0 011.43 3.98V36h-7.77a3.22 3.22 0 00.82 2.15 2.9 2.9 0 002.17.77 10.92 10.92 0 002.04-.2 8.61 8.61 0 002-.73v2.52a8.98 8.98 0 01-1.84.65 17.4 17.4 0 01-2.33.16" class="cls-1" transform="translate(-172.5 -25.55)"/><path id="Path_220" d="M219.34 41.46L214.8 29.6h3.4l2.3 6.78a14.26 14.26 0 01.48 2.44h.09a10.65 10.65 0 01.49-2.44l2.29-6.78h3.4l-4.55 11.86z" class="cls-1" transform="translate(-188.93 -25.9)"/><path id="Path_221" d="M250.89 31.31a2.08 2.08 0 00-1.64.65 2.86 2.86 0 00-.66 1.87h4.59a2.84 2.84 0 00-.61-1.87 2.17 2.17 0 00-1.68-.65m.45 10a6.14 6.14 0 01-4.5-1.6 5.9 5.9 0 01-1.64-4.46 6.52 6.52 0 011.51-4.63 6.16 6.16 0 018.1-.2 5.45 5.45 0 011.43 3.98v1.58h-7.73a3.22 3.22 0 00.82 2.16 2.9 2.9 0 002.17.77 10.92 10.92 0 002.04-.2 8.61 8.61 0 002-.73v2.51a8.98 8.98 0 01-1.83.65 18.09 18.09 0 01-2.38.17" class="cls-1" transform="translate(-206.88 -25.55)"/><path id="Path_222" d="M277.65 35.35l-3.85-5.85h3.68l2.34 3.82 2.33-3.82h3.73l-3.9 5.85 4.06 6.05h-3.73l-2.5-4.06-2.53 4.06h-3.68z" class="cls-1" transform="translate(-223.66 -25.84)"/><path id="Path_223" d="M312.7 31.6a2.04 2.04 0 00-1.75.73 4.1 4.1 0 00-.57 2.44v.36a5 5 0 00.57 2.72 1.97 1.97 0 001.8.82c1.47 0 2.2-1.18 2.2-3.58a5.1 5.1 0 00-.52-2.64 1.9 1.9 0 00-1.72-.85m.98 9.7a4.02 4.02 0 01-3.32-1.5h-.16c.12.99.17 1.6.17 1.71v4.84h-3.28V29.2h2.66l.45 1.54h.17a4.19 4.19 0 016.7-.12 7.38 7.38 0 011.2 4.5 8.92 8.92 0 01-.58 3.3 4.61 4.61 0 01-1.6 2.15 3.96 3.96 0 01-2.41.73" class="cls-1" transform="translate(-243.45 -25.55)"/><path id="Path_224" d="M343.09 31.31a2.08 2.08 0 00-1.64.65 2.86 2.86 0 00-.66 1.87h4.59a2.64 2.64 0 00-.61-1.87 2.23 2.23 0 00-1.68-.65m.45 9.99a6.14 6.14 0 01-4.5-1.58 5.9 5.9 0 01-1.64-4.47 6.52 6.52 0 011.51-4.63A5.3 5.3 0 01343.1 29a5.51 5.51 0 013.97 1.42 5.45 5.45 0 011.43 3.98v1.58h-7.73a3.22 3.22 0 00.82 2.16 2.9 2.9 0 002.17.77 10.92 10.92 0 002.04-.2 8.62 8.62 0 002-.73v2.52a8.98 8.98 0 01-1.83.65 19.94 19.94 0 01-2.42.16" class="cls-1" transform="translate(-261.35 -25.55)"/><path id="Path_225" d="M374.57 29a7.72 7.72 0 011.1.08l-.24 3.05a3.22 3.22 0 00-.98-.13 3.47 3.47 0 00-2.42.82 2.87 2.87 0 00-.86 2.23v6.05h-3.27V29.2h2.46l.49 1.99h.16a4.44 4.44 0 011.51-1.62 3.87 3.87 0 012.05-.57" class="cls-1" transform="translate(-279.36 -25.55)"/><path id="Path_226" d="M395.06 35.3a7.05 7.05 0 002.05-.36v2.4a7.28 7.28 0 01-3 .52 3.75 3.75 0 01-2.86-.98 4.16 4.16 0 01-.9-2.96V28.2h-1.55v-1.38l1.8-1.1.94-2.51h2.09v2.51h3.36v2.44h-3.36v5.73a1.18 1.18 0 00.41 1.01 1.25 1.25 0 001.02.4" class="cls-1" transform="translate(-291.7 -22.1)"/><path id="Path_227" d="M421.19 37.69a3.29 3.29 0 01-1.27 2.8 6.25 6.25 0 01-3.8.97 11.69 11.69 0 01-2.22-.16 7.7 7.7 0 01-1.72-.53v-2.72a13.38 13.38 0 002.04.73 7.91 7.91 0 002.01.29c1.19 0 1.76-.33 1.76-1.02a.82.82 0 00-.24-.6 3.12 3.12 0 00-.82-.54 12.04 12.04 0 00-1.56-.69 9.18 9.18 0 01-2.04-1.05 2.77 2.77 0 01-.94-1.14 3.47 3.47 0 01-.3-1.54 2.79 2.79 0 011.23-2.44 6.17 6.17 0 013.52-.85 10.26 10.26 0 014.22.93l-.98 2.36c-.62-.25-1.15-.45-1.68-.61a5.44 5.44 0 00-1.6-.25c-.98 0-1.43.25-1.43.78a1.03 1.03 0 00.45.77 13.07 13.07 0 002.04.93 8.33 8.33 0 012.04 1.06 3.25 3.25 0 011 1.13 2.58 2.58 0 01.29 1.38" class="cls-1" transform="translate(-305.47 -25.66)"/></g></g></svg>